<svg width="156" height="51" viewBox="0 0 156 51" fill="none" xmlns="http://www.w3.org/2000/svg">
<path d="M65.8431 35.0536C64.3908 35.0536 63.0537 34.8241 61.8317 34.365C60.6274 33.8882 59.5736 33.2261 58.6704 32.3785C57.7672 31.5133 57.0676 30.498 56.5717 29.3326C56.0758 28.1672 55.8279 26.8959 55.8279 25.5186C55.8279 24.1413 56.0758 22.8699 56.5717 21.7045C57.0676 20.5391 57.7672 19.5327 58.6704 18.6851C59.5913 17.8199 60.6628 17.1577 61.8848 16.6986C63.1068 16.2219 64.4439 15.9835 65.8962 15.9835C67.4724 15.9835 68.8892 16.2395 70.1467 16.7516C71.4218 17.2637 72.4933 18.0141 73.3611 19.0029L71.1827 21.1218C70.4566 20.3979 69.6685 19.8682 68.8184 19.5327C67.986 19.1795 67.0651 19.0029 66.0556 19.0029C65.0815 19.0029 64.1783 19.1618 63.3459 19.4797C62.5135 19.7975 61.7963 20.2478 61.1941 20.8305C60.592 21.4132 60.1226 22.1018 59.7861 22.8964C59.4673 23.691 59.308 24.5651 59.308 25.5186C59.308 26.4544 59.4673 27.3196 59.7861 28.1142C60.1226 28.9088 60.592 29.6063 61.1941 30.2066C61.7963 30.7893 62.5047 31.2396 63.3193 31.5574C64.134 31.8753 65.0372 32.0342 66.029 32.0342C66.95 32.0342 67.8355 31.8929 68.6856 31.6104C69.5534 31.3102 70.3769 30.8158 71.1561 30.1272L73.122 32.6964C72.1479 33.4733 71.0145 34.0648 69.7216 34.4709C68.4465 34.8594 67.1536 35.0536 65.8431 35.0536ZM69.8544 32.2461V25.3067H73.122V32.6964L69.8544 32.2461Z" fill="white"/>
<path d="M77.6769 34.7888V16.2484H85.3278C86.9748 16.2484 88.3828 16.5132 89.5517 17.0429C90.7383 17.5727 91.6504 18.3319 92.2879 19.3208C92.9255 20.3096 93.2443 21.4838 93.2443 22.8434C93.2443 24.2031 92.9255 25.3773 92.2879 26.3661C91.6504 27.3373 90.7383 28.0877 89.5517 28.6175C88.3828 29.1295 86.9748 29.3856 85.3278 29.3856H79.5896L81.1304 27.8229V34.7888H77.6769ZM89.8439 34.7888L85.1418 28.0613H88.8344L93.5631 34.7888H89.8439ZM81.1304 28.1937L79.5896 26.5515H85.1684C86.6915 26.5515 87.8338 26.2249 88.5953 25.5715C89.3746 24.9182 89.7642 24.0088 89.7642 22.8434C89.7642 21.6604 89.3746 20.751 88.5953 20.1154C87.8338 19.4797 86.6915 19.1618 85.1684 19.1618H79.5896L81.1304 17.4667V28.1937Z" fill="white"/>
<path d="M105.822 35.0536C104.369 35.0536 103.032 34.8153 101.81 34.3385C100.588 33.8618 99.5256 33.1996 98.6223 32.352C97.7191 31.4868 97.0196 30.4803 96.5237 29.3326C96.0278 28.1672 95.7798 26.8959 95.7798 25.5186C95.7798 24.1413 96.0278 22.8788 96.5237 21.731C97.0196 20.5656 97.7191 19.5591 98.6223 18.7116C99.5256 17.8464 100.588 17.1754 101.81 16.6986C103.032 16.2219 104.36 15.9835 105.795 15.9835C107.247 15.9835 108.576 16.2219 109.78 16.6986C111.002 17.1754 112.064 17.8464 112.968 18.7116C113.871 19.5591 114.57 20.5656 115.066 21.731C115.562 22.8788 115.81 24.1413 115.81 25.5186C115.81 26.8959 115.562 28.1672 115.066 29.3326C114.57 30.498 113.871 31.5045 112.968 32.352C112.064 33.1996 111.002 33.8618 109.78 34.3385C108.576 34.8153 107.256 35.0536 105.822 35.0536ZM105.795 32.0342C106.734 32.0342 107.601 31.8753 108.398 31.5574C109.195 31.2396 109.886 30.7893 110.471 30.2066C111.055 29.6063 111.507 28.9176 111.825 28.1407C112.162 27.3461 112.33 26.4721 112.33 25.5186C112.33 24.5651 112.162 23.6998 111.825 22.9229C111.507 22.1283 111.055 21.4397 110.471 20.857C109.886 20.2566 109.195 19.7975 108.398 19.4797C107.601 19.1618 106.734 19.0029 105.795 19.0029C104.856 19.0029 103.989 19.1618 103.192 19.4797C102.412 19.7975 101.722 20.2566 101.119 20.857C100.535 21.4397 100.075 22.1283 99.7381 22.9229C99.4193 23.6998 99.2599 24.5651 99.2599 25.5186C99.2599 26.4544 99.4193 27.3196 99.7381 28.1142C100.075 28.9088 100.535 29.6063 101.119 30.2066C101.704 30.7893 102.395 31.2396 103.192 31.5574C103.989 31.8753 104.856 32.0342 105.795 32.0342Z" fill="white"/>
<path d="M127.467 35.0536C124.917 35.0536 122.915 34.3385 121.463 32.9083C120.029 31.478 119.311 29.4121 119.311 26.7105V16.2484H122.765V26.578C122.765 28.485 123.172 29.8712 123.987 30.7364C124.819 31.6016 125.988 32.0342 127.494 32.0342C128.999 32.0342 130.159 31.6016 130.974 30.7364C131.788 29.8712 132.196 28.485 132.196 26.578V16.2484H135.596V26.7105C135.596 29.4121 134.87 31.478 133.418 32.9083C131.983 34.3385 130 35.0536 127.467 35.0536Z" fill="white"/>
<path d="M140.433 34.7888V16.2484H148.083C149.731 16.2484 151.138 16.5132 152.307 17.0429C153.494 17.5727 154.406 18.3319 155.044 19.3208C155.681 20.3096 156 21.4838 156 22.8434C156 24.2031 155.681 25.3773 155.044 26.3661C154.406 27.355 153.494 28.1142 152.307 28.644C151.138 29.1737 149.731 29.4385 148.083 29.4385H142.345L143.886 27.8229V34.7888H140.433ZM143.886 28.1937L142.345 26.525H147.924C149.447 26.525 150.589 26.2072 151.351 25.5715C152.13 24.9182 152.52 24.0088 152.52 22.8434C152.52 21.6604 152.13 20.751 151.351 20.1154C150.589 19.4797 149.447 19.1618 147.924 19.1618H142.345L143.886 17.4667V28.1937Z" fill="white"/>
<rect width="50.9733" height="51" rx="25.4867" fill="#0D9F00"/>
<path d="M22.7276 25.5526L19.7588 16.6144H21.4863L24.1352 24.6971H23.2778L26.0291 16.6144H27.5647L30.2391 24.6971H29.4074L32.1202 16.6144H33.707L30.7382 25.5526H28.9723L26.5282 18.2616H26.9888L24.5063 25.5526H22.7276Z" fill="#F5F5F5"/>
<path d="M35.0622 25.5526V16.6144H36.7258V24.148H41.4093V25.5526H35.0622Z" fill="#F5F5F5"/>
<path d="M26.042 45.9526C23.0735 45.9526 20.3403 45.4859 17.8424 44.5526C15.3808 43.5833 13.2268 42.2371 11.3806 40.514C9.53432 38.755 8.10438 36.6909 7.09075 34.3216C6.07713 31.9523 5.57031 29.3676 5.57031 26.5676C5.57031 23.7675 6.0077 21.0049 6.63842 18.7574C7.58451 15.3861 9.53432 12.263 11.3806 10.5398C13.263 8.78083 15.4532 7.43465 17.951 6.5013C20.4489 5.53205 23.1821 5.04742 26.1506 5.04742C29.3725 5.04742 32.2685 5.56795 34.8388 6.60899C37.4453 7.65004 39.6354 9.17571 41.4093 11.186L36.9566 15.4938C35.4723 14.022 33.8614 12.945 32.1237 12.263C30.4223 11.545 28.5398 11.186 26.4764 11.186C24.4853 11.186 22.6391 11.5091 20.9376 12.1553C19.2362 12.8014 17.77 13.8081 16.5392 14.9928C15.3084 16.1774 14.0761 17.2403 13.272 19.8812C12.4678 22.522 12.5411 24.6291 12.5411 26.5676C12.5411 28.4702 13.0096 30.2292 13.6612 31.8446C14.349 33.46 15.3084 34.878 16.5392 36.0985C17.77 37.2832 19.2181 38.1986 20.8833 38.8447C22.5486 39.4909 24.1233 40.2214 26.1506 40.2214C28.033 40.2214 30.3861 39.8967 32.1237 39.3223C33.8976 38.7121 35.3094 37.337 36.9023 35.937L41.4093 41.0642C39.4182 42.6437 36.6126 43.9423 33.97 44.7679C31.3635 45.5577 28.7208 45.9526 26.042 45.9526ZM34.8388 39.814V32.3876H24.8525V27.0773H41.4093V41.0642L34.8388 39.814Z" fill="#F5F5F5"/>
</svg>
