<svg width="63" height="70" viewBox="0 0 63 70" fill="none" xmlns="http://www.w3.org/2000/svg">
<g clip-path="url(#clip0_935_22022)">
<path d="M49.6542 54.708L49.8525 44.1559L59.2481 40.1403C59.4715 40.0444 59.6608 39.8906 59.7964 39.6947C59.932 39.4988 60.0092 39.2678 60.0199 39.0254C60.0307 38.783 59.9747 38.5379 59.8577 38.3151C59.7407 38.0923 59.5668 37.8999 59.3539 37.7575L21.7379 12.8055C21.0988 12.3816 20.3292 12.2111 19.5984 12.3317C18.8677 12.4523 18.2356 12.854 17.8413 13.4485L8.92036 26.8971C8.52603 27.4916 8.40173 28.2301 8.57481 28.9503C8.74789 29.6704 9.20417 30.3131 9.84327 30.737L47.4955 55.713C47.7081 55.854 47.9518 55.9402 48.2016 55.9627C48.4514 55.9852 48.6984 55.9433 48.9177 55.8413C49.137 55.7392 49.3206 55.5806 49.45 55.3815C49.5793 55.1825 49.6498 54.9501 49.6542 54.708ZM23.68 32.1366L22.3305 31.2415L21.629 23.772L18.3952 28.6472L17.0337 27.7441L21.6354 20.8068L22.9969 21.7099L23.703 29.1985L26.9368 24.3234L28.2863 25.2185L23.68 32.1366ZM35.1577 31.3904L30.9045 28.5691L29.7968 30.239L33.6524 32.7965L32.909 33.9173L29.0534 31.3597L27.8565 33.1641L32.1097 35.9854L31.3663 37.1061L25.7516 33.3817L30.2864 26.5453L35.889 30.2617L35.1577 31.3904ZM41.31 43.7989L39.9485 42.8958L41.4932 36.5129L36.1986 40.4406L34.8491 39.5455L37.0337 31.021L38.5036 31.996L36.8007 38.0158L41.9254 34.2658L43.3954 35.2409L41.8612 41.3726L46.757 37.4707L48.2389 38.4538L41.31 43.7989Z" fill="#F24822"/>
</g>
<defs>
<clipPath id="clip0_935_22022">
<rect width="52.0506" height="48.4154" fill="white" transform="translate(26.7627) rotate(33.5576)"/>
</clipPath>
</defs>
</svg>
