<svg width="48" height="48" viewBox="0 0 48 48" fill="none" xmlns="http://www.w3.org/2000/svg">
<path fill-rule="evenodd" clip-rule="evenodd" d="M24 44C12.954 44 4 35.046 4 24C4 12.954 12.954 4 24 4C35.046 4 44 12.954 44 24C44 35.046 35.046 44 24 44ZM28.06 16.94C27.7787 16.6591 27.3975 16.5013 27 16.5013C26.6025 16.5013 26.2213 16.6591 25.94 16.94L19.94 22.94C19.6591 23.2213 19.5013 23.6025 19.5013 24C19.5013 24.3975 19.6591 24.7787 19.94 25.06L25.94 31.06C26.0773 31.2074 26.2429 31.3256 26.4269 31.4076C26.6109 31.4895 26.8096 31.5336 27.011 31.5372C27.2124 31.5407 27.4124 31.5037 27.5992 31.4282C27.786 31.3528 27.9556 31.2405 28.0981 31.0981C28.2405 30.9556 28.3528 30.786 28.4282 30.5992C28.5037 30.4124 28.5407 30.2124 28.5372 30.011C28.5336 29.8096 28.4895 29.6109 28.4076 29.4269C28.3256 29.2429 28.2074 29.0773 28.06 28.94L23.12 24L28.06 19.06C28.3409 18.7787 28.4987 18.3975 28.4987 18C28.4987 17.6025 28.3409 17.2213 28.06 16.94Z" fill="#53C640"/>
</svg>
