<svg width="48" height="48" viewBox="0 0 48 48" fill="none" xmlns="http://www.w3.org/2000/svg">
<path fill-rule="evenodd" clip-rule="evenodd" d="M24 44C35.046 44 44 35.046 44 24C44 12.954 35.046 4 24 4C12.954 4 4 12.954 4 24C4 35.046 12.954 44 24 44ZM19.94 16.94C20.2213 16.6591 20.6025 16.5013 21 16.5013C21.3975 16.5013 21.7787 16.6591 22.06 16.94L28.06 22.94C28.3409 23.2213 28.4987 23.6025 28.4987 24C28.4987 24.3975 28.3409 24.7787 28.06 25.06L22.06 31.06C21.9227 31.2074 21.7571 31.3256 21.5731 31.4076C21.3891 31.4895 21.1904 31.5336 20.989 31.5372C20.7876 31.5407 20.5876 31.5037 20.4008 31.4282C20.214 31.3528 20.0444 31.2405 19.9019 31.0981C19.7595 30.9556 19.6472 30.786 19.5718 30.5992C19.4963 30.4124 19.4593 30.2124 19.4628 30.011C19.4664 29.8096 19.5105 29.6109 19.5924 29.4269C19.6744 29.2429 19.7926 29.0773 19.94 28.94L24.88 24L19.94 19.06C19.6591 18.7787 19.5013 18.3975 19.5013 18C19.5013 17.6025 19.6591 17.2213 19.94 16.94Z" fill="#53C640"/>
</svg>
